<svg width="1400" height="860" viewBox="0 0 1400 860" fill="none" xmlns="http://www.w3.org/2000/svg">
  <rect width="1400" height="860" rx="24" fill="#0D1014"/>
  <rect x="24" y="24" width="1352" height="812" rx="18" fill="#121722" stroke="#232C3D" stroke-width="2"/>
  <rect x="52" y="52" width="1300" height="86" rx="12" fill="#0D1014" stroke="#232C3D"/>
  <rect x="78" y="82" width="420" height="28" rx="8" fill="#121722"/>
  <rect x="1200" y="82" width="126" height="28" rx="8" fill="#007AFF"/>
  <rect x="52" y="162" width="840" height="646" rx="12" fill="#0D1014" stroke="#232C3D"/>
  <rect x="912" y="162" width="440" height="646" rx="12" fill="#0D1014" stroke="#232C3D"/>
  <rect x="76" y="188" width="792" height="122" rx="10" fill="#121722"/>
  <rect x="76" y="324" width="792" height="122" rx="10" fill="#121722"/>
  <rect x="76" y="460" width="792" height="122" rx="10" fill="#121722"/>
  <rect x="76" y="596" width="792" height="186" rx="10" fill="#121722"/>
  <rect x="936" y="188" width="392" height="184" rx="10" fill="#121722"/>
  <rect x="936" y="390" width="392" height="184" rx="10" fill="#121722"/>
  <rect x="936" y="592" width="392" height="190" rx="10" fill="#121722"/>
  <text x="84" y="772" fill="#94A3B8" font-family="Arial, sans-serif" font-size="20">Replace with real reviews and profile trust screenshot</text>
</svg>
