<svg width="1400" height="860" viewBox="0 0 1400 860" fill="none" xmlns="http://www.w3.org/2000/svg">
  <rect width="1400" height="860" rx="24" fill="#0D1014"/>
  <rect x="24" y="24" width="1352" height="812" rx="18" fill="#121722" stroke="#232C3D" stroke-width="2"/>
  <rect x="52" y="52" width="924" height="756" rx="12" fill="#0D1014" stroke="#232C3D"/>
  <rect x="996" y="52" width="380" height="756" rx="12" fill="#0D1014" stroke="#232C3D"/>
  <rect x="80" y="84" width="868" height="78" rx="10" fill="#121722"/>
  <rect x="104" y="108" width="260" height="30" rx="8" fill="#00FF94" fill-opacity="0.2" stroke="#00FF94"/>
  <rect x="820" y="108" width="104" height="30" rx="8" fill="#007AFF"/>
  <rect x="80" y="182" width="868" height="286" rx="10" fill="#121722"/>
  <rect x="80" y="486" width="868" height="292" rx="10" fill="#121722"/>
  <rect x="1024" y="84" width="324" height="120" rx="10" fill="#121722"/>
  <rect x="1024" y="224" width="324" height="180" rx="10" fill="#121722"/>
  <rect x="1024" y="424" width="324" height="354" rx="10" fill="#121722"/>
  <text x="102" y="760" fill="#94A3B8" font-family="Arial, sans-serif" font-size="20">Replace with real invoices and payments screenshot</text>
</svg>
