<svg width="1400" height="860" viewBox="0 0 1400 860" fill="none" xmlns="http://www.w3.org/2000/svg">
  <rect width="1400" height="860" rx="24" fill="#0D1014"/>
  <rect x="24" y="24" width="1352" height="812" rx="18" fill="#121722" stroke="#232C3D" stroke-width="2"/>
  <rect x="52" y="52" width="548" height="756" rx="12" fill="#0D1014" stroke="#232C3D"/>
  <rect x="620" y="52" width="756" height="756" rx="12" fill="#0D1014" stroke="#232C3D"/>
  <rect x="76" y="82" width="500" height="88" rx="10" fill="#121722"/>
  <rect x="96" y="112" width="220" height="30" rx="8" fill="#00FF94" fill-opacity="0.2" stroke="#00FF94"/>
  <rect x="76" y="188" width="500" height="352" rx="10" fill="#121722"/>
  <rect x="76" y="558" width="500" height="224" rx="10" fill="#121722"/>
  <rect x="648" y="82" width="700" height="68" rx="10" fill="#121722"/>
  <rect x="648" y="170" width="220" height="44" rx="10" fill="#0D1014" stroke="#232C3D"/>
  <rect x="882" y="170" width="220" height="44" rx="10" fill="#0D1014" stroke="#232C3D"/>
  <rect x="1116" y="170" width="220" height="44" rx="10" fill="#0D1014" stroke="#232C3D"/>
  <rect x="648" y="238" width="220" height="230" rx="10" fill="#121722"/>
  <rect x="882" y="238" width="220" height="230" rx="10" fill="#121722"/>
  <rect x="1116" y="238" width="220" height="230" rx="10" fill="#121722"/>
  <rect x="648" y="488" width="220" height="230" rx="10" fill="#121722"/>
  <rect x="882" y="488" width="220" height="230" rx="10" fill="#121722"/>
  <rect x="1116" y="488" width="220" height="230" rx="10" fill="#121722"/>
  <text x="648" y="776" fill="#94A3B8" font-family="Arial, sans-serif" font-size="20">Replace with Signal profile and Discover screenshots</text>
</svg>
