<svg width="1200" height="800" viewBox="0 0 1200 800" fill="none" xmlns="http://www.w3.org/2000/svg">
  <rect width="1200" height="800" rx="24" fill="#0D1014"/>
  <rect x="28" y="28" width="1144" height="744" rx="18" fill="#121722" stroke="#232C3D" stroke-width="2"/>
  <rect x="52" y="52" width="760" height="696" rx="12" fill="#0D1014" stroke="#232C3D"/>
  <rect x="834" y="52" width="314" height="696" rx="12" fill="#0D1014" stroke="#232C3D"/>
  <rect x="72" y="78" width="720" height="74" rx="10" fill="#121722"/>
  <rect x="92" y="102" width="270" height="26" rx="8" fill="#00FF94" fill-opacity="0.2" stroke="#00FF94"/>
  <rect x="674" y="102" width="98" height="26" rx="8" fill="#007AFF"/>
  <rect x="72" y="174" width="720" height="430" rx="10" fill="#121722"/>
  <rect x="90" y="192" width="300" height="68" rx="10" fill="#0D1014" stroke="#232C3D"/>
  <rect x="478" y="278" width="296" height="68" rx="10" fill="#0D1014" stroke="#232C3D"/>
  <rect x="90" y="364" width="330" height="68" rx="10" fill="#0D1014" stroke="#232C3D"/>
  <rect x="72" y="622" width="720" height="104" rx="10" fill="#0D1014" stroke="#232C3D"/>
  <rect x="92" y="646" width="560" height="56" rx="8" fill="#121722"/>
  <rect x="664" y="646" width="108" height="56" rx="8" fill="#007AFF"/>
  <rect x="854" y="78" width="274" height="44" rx="10" fill="#121722"/>
  <rect x="854" y="136" width="274" height="44" rx="10" fill="#121722"/>
  <rect x="854" y="194" width="274" height="44" rx="10" fill="#00FF94" fill-opacity="0.12" stroke="#00FF94"/>
  <rect x="854" y="258" width="274" height="194" rx="10" fill="#121722"/>
  <rect x="854" y="470" width="274" height="194" rx="10" fill="#121722"/>
  <circle cx="1096" cy="700" r="30" fill="#0D1014" stroke="#007AFF"/>
  <circle cx="1096" cy="700" r="16" fill="#00FF94" fill-opacity="0.35"/>
  <text x="878" y="709" fill="#94A3B8" font-family="Arial, sans-serif" font-size="18">Replace with real Vora screenshot</text>
</svg>
